<svg width="87" height="62" viewBox="0 0 87 62" fill="none" xmlns="http://www.w3.org/2000/svg">
<rect x="1" y="1" width="85" height="60" stroke="#0BA3F8" stroke-width="2"/>
<path d="M34.04 23H31.304L26.728 16.072V23H23.992V11.768H26.728L31.304 18.728V11.768H34.04V23ZM37.3993 13.144C36.9193 13.144 36.5246 13.0053 36.2153 12.728C35.9166 12.44 35.7673 12.088 35.7673 11.672C35.7673 11.2453 35.9166 10.8933 36.2153 10.616C36.5246 10.328 36.9193 10.184 37.3993 10.184C37.8686 10.184 38.2526 10.328 38.5513 10.616C38.8606 10.8933 39.0153 11.2453 39.0153 11.672C39.0153 12.088 38.8606 12.44 38.5513 12.728C38.2526 13.0053 37.8686 13.144 37.3993 13.144ZM38.7593 14.072V23H36.0233V14.072H38.7593ZM59.9392 18.392C59.9392 18.648 59.9233 18.9147 59.8913 19.192H53.6993C53.7419 19.7467 53.9179 20.1733 54.2273 20.472C54.5473 20.76 54.9366 20.904 55.3953 20.904C56.0779 20.904 56.5526 20.616 56.8193 20.04H59.7313C59.5819 20.6267 59.3099 21.1547 58.9153 21.624C58.5313 22.0933 58.0459 22.4613 57.4593 22.728C56.8726 22.9947 56.2166 23.128 55.4913 23.128C54.6166 23.128 53.8379 22.9413 53.1553 22.568C52.4726 22.1947 51.9393 21.6613 51.5553 20.968C51.1713 20.2747 50.9793 19.464 50.9793 18.536C50.9793 17.608 51.1659 16.7973 51.5393 16.104C51.9233 15.4107 52.4566 14.8773 53.1393 14.504C53.8219 14.1307 54.6059 13.944 55.4913 13.944C56.3553 13.944 57.1233 14.1253 57.7953 14.488C58.4673 14.8507 58.9899 15.368 59.3633 16.04C59.7473 16.712 59.9392 17.496 59.9392 18.392ZM57.1393 17.672C57.1393 17.2027 56.9793 16.8293 56.6593 16.552C56.3393 16.2747 55.9393 16.136 55.4593 16.136C55.0006 16.136 54.6113 16.2693 54.2913 16.536C53.9819 16.8027 53.7899 17.1813 53.7153 17.672H57.1393Z" fill="white"/>
<path d="M46.182 13.976C47.2273 13.976 48.0593 14.3173 48.678 15C49.3073 15.672 49.622 16.6 49.622 17.784V23H46.902V18.152C46.902 17.5547 46.7473 17.0907 46.438 16.76C46.1287 16.4293 45.7127 16.264 45.19 16.264C44.6673 16.264 44.2513 16.4293 43.942 16.76C43.6327 17.0907 43.478 17.5547 43.478 18.152V23H40.742V14.072H43.478V15.256C43.7553 14.8613 44.1287 14.552 44.598 14.328C45.0673 14.0933 45.5953 13.976 46.182 13.976Z" fill="#0BA3F8"/>
<path d="M20.6946 34.768V36.96H16.1186V39.328H19.5426V41.456H16.1186V46H13.3826V34.768H20.6946ZM36.624 46.128C35.8453 46.128 35.152 45.9947 34.544 45.728C33.936 45.4613 33.456 45.0987 33.104 44.64C32.752 44.1707 32.5547 43.648 32.512 43.072H35.216C35.248 43.3813 35.392 43.632 35.648 43.824C35.904 44.016 36.2187 44.112 36.592 44.112C36.9333 44.112 37.1947 44.048 37.376 43.92C37.568 43.7813 37.664 43.6053 37.664 43.392C37.664 43.136 37.5307 42.9493 37.264 42.832C36.9973 42.704 36.5653 42.5653 35.968 42.416C35.328 42.2667 34.7947 42.112 34.368 41.952C33.9413 41.7813 33.5733 41.52 33.264 41.168C32.9547 40.8053 32.8 40.32 32.8 39.712C32.8 39.2 32.9387 38.736 33.216 38.32C33.504 37.8933 33.92 37.5573 34.464 37.312C35.0187 37.0667 35.6747 36.944 36.432 36.944C37.552 36.944 38.432 37.2213 39.072 37.776C39.7227 38.3307 40.096 39.0667 40.192 39.984H37.664C37.6213 39.6747 37.4827 39.4293 37.248 39.248C37.024 39.0667 36.7253 38.976 36.352 38.976C36.032 38.976 35.7867 39.04 35.616 39.168C35.4453 39.2853 35.36 39.4507 35.36 39.664C35.36 39.92 35.4933 40.112 35.76 40.24C36.0373 40.368 36.464 40.496 37.04 40.624C37.7013 40.7947 38.24 40.9653 38.656 41.136C39.072 41.296 39.4347 41.5627 39.744 41.936C40.064 42.2987 40.2293 42.7893 40.24 43.408C40.24 43.9307 40.0907 44.4 39.792 44.816C39.504 45.2213 39.0827 45.5413 38.528 45.776C37.984 46.0107 37.3493 46.128 36.624 46.128ZM47.4019 36.976C48.4259 36.976 49.2472 37.3173 49.8659 38C50.4845 38.672 50.7939 39.6 50.7939 40.784V46H48.0739V41.152C48.0739 40.5547 47.9192 40.0907 47.6099 39.76C47.3005 39.4293 46.8845 39.264 46.3619 39.264C45.8392 39.264 45.4232 39.4293 45.1139 39.76C44.8045 40.0907 44.6499 40.5547 44.6499 41.152V46H41.9139V34.16H44.6499V38.272C44.9272 37.8773 45.3059 37.5627 45.7859 37.328C46.2659 37.0933 46.8045 36.976 47.4019 36.976ZM54.0711 36.144C53.5911 36.144 53.1965 36.0053 52.8871 35.728C52.5885 35.44 52.4391 35.088 52.4391 34.672C52.4391 34.2453 52.5885 33.8933 52.8871 33.616C53.1965 33.328 53.5911 33.184 54.0711 33.184C54.5405 33.184 54.9245 33.328 55.2231 33.616C55.5325 33.8933 55.6871 34.2453 55.6871 34.672C55.6871 35.088 55.5325 35.44 55.2231 35.728C54.9245 36.0053 54.5405 36.144 54.0711 36.144ZM55.4311 37.072V46H52.6951V37.072H55.4311ZM61.4779 46.128C60.6032 46.128 59.8139 45.9413 59.1099 45.568C58.4165 45.1947 57.8672 44.6613 57.4619 43.968C57.0672 43.2747 56.8699 42.464 56.8699 41.536C56.8699 40.6187 57.0725 39.8133 57.4779 39.12C57.8832 38.416 58.4379 37.8773 59.1419 37.504C59.8459 37.1307 60.6352 36.944 61.5099 36.944C62.3845 36.944 63.1739 37.1307 63.8779 37.504C64.5819 37.8773 65.1365 38.416 65.5419 39.12C65.9472 39.8133 66.1499 40.6187 66.1499 41.536C66.1499 42.4533 65.9419 43.264 65.5259 43.968C65.1205 44.6613 64.5605 45.1947 63.8459 45.568C63.1419 45.9413 62.3525 46.128 61.4779 46.128ZM61.4779 43.76C62.0005 43.76 62.4432 43.568 62.8059 43.184C63.1792 42.8 63.3659 42.2507 63.3659 41.536C63.3659 40.8213 63.1845 40.272 62.8219 39.888C62.4699 39.504 62.0325 39.312 61.5099 39.312C60.9765 39.312 60.5339 39.504 60.1819 39.888C59.8299 40.2613 59.6539 40.8107 59.6539 41.536C59.6539 42.2507 59.8245 42.8 60.1659 43.184C60.5179 43.568 60.9552 43.76 61.4779 43.76ZM73.0414 36.976C74.0867 36.976 74.9187 37.3173 75.5374 38C76.1667 38.672 76.4814 39.6 76.4814 40.784V46H73.7614V41.152C73.7614 40.5547 73.6067 40.0907 73.2974 39.76C72.988 39.4293 72.572 39.264 72.0494 39.264C71.5267 39.264 71.1107 39.4293 70.8014 39.76C70.492 40.0907 70.3374 40.5547 70.3374 41.152V46H67.6014V37.072H70.3374V38.256C70.6147 37.8613 70.988 37.552 71.4574 37.328C71.9267 37.0933 72.4547 36.976 73.0414 36.976Z" fill="white"/>
<path d="M21.5886 41.52C21.5886 40.6027 21.7593 39.7973 22.1006 39.104C22.4526 38.4107 22.9273 37.8773 23.5246 37.504C24.122 37.1307 24.7886 36.944 25.5246 36.944C26.154 36.944 26.7033 37.072 27.1726 37.328C27.6526 37.584 28.0206 37.92 28.2766 38.336V37.072H31.0126V46H28.2766V44.736C28.01 45.152 27.6366 45.488 27.1566 45.744C26.6873 46 26.138 46.128 25.5086 46.128C24.7833 46.128 24.122 45.9413 23.5246 45.568C22.9273 45.184 22.4526 44.6453 22.1006 43.952C21.7593 43.248 21.5886 42.4373 21.5886 41.52ZM28.2766 41.536C28.2766 40.8533 28.0846 40.3147 27.7006 39.92C27.3273 39.5253 26.8686 39.328 26.3246 39.328C25.7806 39.328 25.3166 39.5253 24.9326 39.92C24.5593 40.304 24.3726 40.8373 24.3726 41.52C24.3726 42.2027 24.5593 42.7467 24.9326 43.152C25.3166 43.5467 25.7806 43.744 26.3246 43.744C26.8686 43.744 27.3273 43.5467 27.7006 43.152C28.0846 42.7573 28.2766 42.2187 28.2766 41.536Z" fill="#0BA3F8"/>
</svg>
