<svg width="82" height="49" viewBox="0 0 82 49" fill="none" xmlns="http://www.w3.org/2000/svg">
<rect x="1" y="1" width="80" height="47" stroke="#0BA3F8" stroke-width="2"/>
<path d="M32.54 20.5H29.804L25.228 13.572V20.5H22.492V9.268H25.228L29.804 16.228V9.268H32.54V20.5ZM35.8993 10.644C35.4193 10.644 35.0246 10.5053 34.7153 10.228C34.4166 9.94 34.2673 9.588 34.2673 9.172C34.2673 8.74533 34.4166 8.39333 34.7153 8.116C35.0246 7.828 35.4193 7.684 35.8993 7.684C36.3686 7.684 36.7526 7.828 37.0513 8.116C37.3606 8.39333 37.5153 8.74533 37.5153 9.172C37.5153 9.588 37.3606 9.94 37.0513 10.228C36.7526 10.5053 36.3686 10.644 35.8993 10.644ZM37.2593 11.572V20.5H34.5233V11.572H37.2593ZM58.4392 15.892C58.4392 16.148 58.4233 16.4147 58.3913 16.692H52.1993C52.2419 17.2467 52.4179 17.6733 52.7273 17.972C53.0473 18.26 53.4366 18.404 53.8953 18.404C54.5779 18.404 55.0526 18.116 55.3193 17.54H58.2313C58.0819 18.1267 57.8099 18.6547 57.4153 19.124C57.0313 19.5933 56.5459 19.9613 55.9593 20.228C55.3726 20.4947 54.7166 20.628 53.9913 20.628C53.1166 20.628 52.3379 20.4413 51.6553 20.068C50.9726 19.6947 50.4393 19.1613 50.0553 18.468C49.6713 17.7747 49.4793 16.964 49.4793 16.036C49.4793 15.108 49.6659 14.2973 50.0393 13.604C50.4233 12.9107 50.9566 12.3773 51.6393 12.004C52.3219 11.6307 53.1059 11.444 53.9913 11.444C54.8553 11.444 55.6233 11.6253 56.2953 11.988C56.9673 12.3507 57.4899 12.868 57.8633 13.54C58.2473 14.212 58.4392 14.996 58.4392 15.892ZM55.6393 15.172C55.6393 14.7027 55.4793 14.3293 55.1593 14.052C54.8393 13.7747 54.4393 13.636 53.9593 13.636C53.5006 13.636 53.1113 13.7693 52.7913 14.036C52.4819 14.3027 52.2899 14.6813 52.2153 15.172H55.6393Z" fill="#061620"/>
<path d="M44.682 11.476C45.7273 11.476 46.5593 11.8173 47.178 12.5C47.8073 13.172 48.122 14.1 48.122 15.284V20.5H45.402V15.652C45.402 15.0547 45.2473 14.5907 44.938 14.26C44.6287 13.9293 44.2127 13.764 43.69 13.764C43.1673 13.764 42.7513 13.9293 42.442 14.26C42.1327 14.5907 41.978 15.0547 41.978 15.652V20.5H39.242V11.572H41.978V12.756C42.2553 12.3613 42.6287 12.052 43.098 11.828C43.5673 11.5933 44.0953 11.476 44.682 11.476Z" fill="#0BA3F8"/>
<path d="M17.6946 29.268V31.46H13.1186V33.828H16.5426V35.956H13.1186V40.5H10.3826V29.268H17.6946ZM33.624 40.628C32.8453 40.628 32.152 40.4947 31.544 40.228C30.936 39.9613 30.456 39.5987 30.104 39.14C29.752 38.6707 29.5547 38.148 29.512 37.572H32.216C32.248 37.8813 32.392 38.132 32.648 38.324C32.904 38.516 33.2187 38.612 33.592 38.612C33.9333 38.612 34.1947 38.548 34.376 38.42C34.568 38.2813 34.664 38.1053 34.664 37.892C34.664 37.636 34.5307 37.4493 34.264 37.332C33.9973 37.204 33.5653 37.0653 32.968 36.916C32.328 36.7667 31.7947 36.612 31.368 36.452C30.9413 36.2813 30.5733 36.02 30.264 35.668C29.9547 35.3053 29.8 34.82 29.8 34.212C29.8 33.7 29.9387 33.236 30.216 32.82C30.504 32.3933 30.92 32.0573 31.464 31.812C32.0187 31.5667 32.6747 31.444 33.432 31.444C34.552 31.444 35.432 31.7213 36.072 32.276C36.7227 32.8307 37.096 33.5667 37.192 34.484H34.664C34.6213 34.1747 34.4827 33.9293 34.248 33.748C34.024 33.5667 33.7253 33.476 33.352 33.476C33.032 33.476 32.7867 33.54 32.616 33.668C32.4453 33.7853 32.36 33.9507 32.36 34.164C32.36 34.42 32.4933 34.612 32.76 34.74C33.0373 34.868 33.464 34.996 34.04 35.124C34.7013 35.2947 35.24 35.4653 35.656 35.636C36.072 35.796 36.4347 36.0627 36.744 36.436C37.064 36.7987 37.2293 37.2893 37.24 37.908C37.24 38.4307 37.0907 38.9 36.792 39.316C36.504 39.7213 36.0827 40.0413 35.528 40.276C34.984 40.5107 34.3493 40.628 33.624 40.628ZM44.4019 31.476C45.4259 31.476 46.2472 31.8173 46.8659 32.5C47.4845 33.172 47.7939 34.1 47.7939 35.284V40.5H45.0739V35.652C45.0739 35.0547 44.9192 34.5907 44.6099 34.26C44.3005 33.9293 43.8845 33.764 43.3619 33.764C42.8392 33.764 42.4232 33.9293 42.1139 34.26C41.8045 34.5907 41.6499 35.0547 41.6499 35.652V40.5H38.9139V28.66H41.6499V32.772C41.9272 32.3773 42.3059 32.0627 42.7859 31.828C43.2659 31.5933 43.8045 31.476 44.4019 31.476ZM51.0711 30.644C50.5911 30.644 50.1965 30.5053 49.8871 30.228C49.5885 29.94 49.4391 29.588 49.4391 29.172C49.4391 28.7453 49.5885 28.3933 49.8871 28.116C50.1965 27.828 50.5911 27.684 51.0711 27.684C51.5405 27.684 51.9245 27.828 52.2231 28.116C52.5325 28.3933 52.6871 28.7453 52.6871 29.172C52.6871 29.588 52.5325 29.94 52.2231 30.228C51.9245 30.5053 51.5405 30.644 51.0711 30.644ZM52.4311 31.572V40.5H49.6951V31.572H52.4311ZM58.4779 40.628C57.6032 40.628 56.8139 40.4413 56.1099 40.068C55.4165 39.6947 54.8672 39.1613 54.4619 38.468C54.0672 37.7747 53.8699 36.964 53.8699 36.036C53.8699 35.1187 54.0725 34.3133 54.4779 33.62C54.8832 32.916 55.4379 32.3773 56.1419 32.004C56.8459 31.6307 57.6352 31.444 58.5099 31.444C59.3845 31.444 60.1739 31.6307 60.8779 32.004C61.5819 32.3773 62.1365 32.916 62.5419 33.62C62.9472 34.3133 63.1499 35.1187 63.1499 36.036C63.1499 36.9533 62.9419 37.764 62.5259 38.468C62.1205 39.1613 61.5605 39.6947 60.8459 40.068C60.1419 40.4413 59.3525 40.628 58.4779 40.628ZM58.4779 38.26C59.0005 38.26 59.4432 38.068 59.8059 37.684C60.1792 37.3 60.3659 36.7507 60.3659 36.036C60.3659 35.3213 60.1845 34.772 59.8219 34.388C59.4699 34.004 59.0325 33.812 58.5099 33.812C57.9765 33.812 57.5339 34.004 57.1819 34.388C56.8299 34.7613 56.6539 35.3107 56.6539 36.036C56.6539 36.7507 56.8245 37.3 57.1659 37.684C57.5179 38.068 57.9552 38.26 58.4779 38.26ZM70.0414 31.476C71.0867 31.476 71.9187 31.8173 72.5374 32.5C73.1667 33.172 73.4814 34.1 73.4814 35.284V40.5H70.7614V35.652C70.7614 35.0547 70.6067 34.5907 70.2974 34.26C69.988 33.9293 69.572 33.764 69.0494 33.764C68.5267 33.764 68.1107 33.9293 67.8014 34.26C67.492 34.5907 67.3374 35.0547 67.3374 35.652V40.5H64.6014V31.572H67.3374V32.756C67.6147 32.3613 67.988 32.052 68.4574 31.828C68.9267 31.5933 69.4547 31.476 70.0414 31.476Z" fill="#061620"/>
<path d="M18.5886 36.02C18.5886 35.1027 18.7593 34.2973 19.1006 33.604C19.4526 32.9107 19.9273 32.3773 20.5246 32.004C21.122 31.6307 21.7886 31.444 22.5246 31.444C23.154 31.444 23.7033 31.572 24.1726 31.828C24.6526 32.084 25.0206 32.42 25.2766 32.836V31.572H28.0126V40.5H25.2766V39.236C25.01 39.652 24.6366 39.988 24.1566 40.244C23.6873 40.5 23.138 40.628 22.5086 40.628C21.7833 40.628 21.122 40.4413 20.5246 40.068C19.9273 39.684 19.4526 39.1453 19.1006 38.452C18.7593 37.748 18.5886 36.9373 18.5886 36.02ZM25.2766 36.036C25.2766 35.3533 25.0846 34.8147 24.7006 34.42C24.3273 34.0253 23.8686 33.828 23.3246 33.828C22.7806 33.828 22.3166 34.0253 21.9326 34.42C21.5593 34.804 21.3726 35.3373 21.3726 36.02C21.3726 36.7027 21.5593 37.2467 21.9326 37.652C22.3166 38.0467 22.7806 38.244 23.3246 38.244C23.8686 38.244 24.3273 38.0467 24.7006 37.652C25.0846 37.2573 25.2766 36.7187 25.2766 36.036Z" fill="#0BA3F8"/>
</svg>
