<svg width="24" height="24" viewBox="0 0 24 24" fill="none" xmlns="http://www.w3.org/2000/svg">
<g id="jam:box">
<path id="Vector" d="M5 4H19C19.7956 4 20.5587 4.31607 21.1213 4.87868C21.6839 5.44129 22 6.20435 22 7V17C22 17.7956 21.6839 18.5587 21.1213 19.1213C20.5587 19.6839 19.7956 20 19 20H5C4.20435 20 3.44129 19.6839 2.87868 19.1213C2.31607 18.5587 2 17.7956 2 17V7C2 6.20435 2.31607 5.44129 2.87868 4.87868C3.44129 4.31607 4.20435 4 5 4ZM5 6C4.73478 6 4.48043 6.10536 4.29289 6.29289C4.10536 6.48043 4 6.73478 4 7V17C4 17.2652 4.10536 17.5196 4.29289 17.7071C4.48043 17.8946 4.73478 18 5 18H19C19.2652 18 19.5196 17.8946 19.7071 17.7071C19.8946 17.5196 20 17.2652 20 17V7C20 6.73478 19.8946 6.48043 19.7071 6.29289C19.5196 6.10536 19.2652 6 19 6H5ZM15.874 11C15.6516 11.8582 15.1504 12.6183 14.4493 13.1609C13.7481 13.7035 12.8866 13.9979 12 13.9979C11.1134 13.9979 10.2519 13.7035 9.55074 13.1609C8.84957 12.6183 8.34844 11.8582 8.126 11H4V9H20V11H15.874ZM13.732 11H10.268C10.4435 11.304 10.696 11.5565 11 11.732C11.3041 11.9075 11.6489 11.9999 12 11.9999C12.3511 11.9999 12.6959 11.9075 13 11.732C13.304 11.5565 13.5565 11.304 13.732 11Z" fill="black"/>
</g>
</svg>
