<svg width="17" height="12" viewBox="0 0 17 12" fill="none" xmlns="http://www.w3.org/2000/svg">
<path id="Vector" d="M16.0078 2.59865L16.0078 2.59869L16.0133 2.59351C16.1532 2.46137 16.3177 2.24319 16.3685 1.95761C16.4252 1.63884 16.3264 1.30934 16.0536 1.03645C15.7829 0.765814 15.4541 0.659183 15.1185 0.719013C14.8286 0.770703 14.5928 0.937041 14.4306 1.07525L8.50025 5.85748L2.57955 1.07538C2.41733 0.93715 2.18152 0.77072 1.89151 0.719013C1.55595 0.659183 1.22708 0.765815 0.956447 1.03645C0.683556 1.30934 0.584756 1.63884 0.641485 1.95761C0.692308 2.24319 0.856778 2.46137 0.996688 2.59351L0.996649 2.59355L1.00222 2.59865L4.68477 5.97281L1.13941 9.66362L1.12959 9.67384L1.12037 9.6846C1.01826 9.80373 0.919081 9.97085 0.881449 10.1671C0.842025 10.3726 0.870142 10.6333 1.0631 10.8487C1.24929 11.0679 1.51074 11.1333 1.69677 11.142C1.88286 11.1506 2.11893 11.1093 2.30486 10.9663L2.31493 10.9586L2.32461 10.9503L6.3584 7.50727L8.16237 9.15879L8.49921 9.46716L8.83677 9.15958L10.6508 7.5066L14.6854 10.9503L14.6951 10.9586L14.7051 10.9663C14.8911 11.1093 15.1271 11.1506 15.3132 11.142C15.4993 11.1333 15.7607 11.0678 15.9469 10.8487C16.1399 10.6333 16.168 10.3726 16.1286 10.1671C16.0909 9.97085 15.9917 9.80373 15.8896 9.68461L15.8804 9.67384L15.8706 9.66362L12.3252 5.97281L16.0078 2.59865ZM16.51 1.5V10.5C16.51 11.0539 16.0639 11.5 15.51 11.5H1.5C0.946142 11.5 0.5 11.0539 0.5 10.5V1.5C0.5 0.946142 0.946142 0.5 1.5 0.5H15.51C16.0639 0.5 16.51 0.946142 16.51 1.5Z" fill="white" stroke="white"/>
</svg>
