<svg width="18" height="19" viewBox="0 0 18 19" fill="none" xmlns="http://www.w3.org/2000/svg">
<path d="M18 17.5586L12.972 12.5306C14.1803 11.08 14.7828 9.21952 14.6542 7.33605C14.5256 5.45259 13.6759 3.69121 12.2817 2.41831C10.8876 1.14541 9.05634 0.459011 7.16898 0.501895C5.28163 0.544779 3.48346 1.31365 2.14855 2.64855C0.813648 3.98346 0.0447792 5.78163 0.00189494 7.66898C-0.0409893 9.55634 0.645413 11.3876 1.91831 12.7817C3.19121 14.1759 4.95259 15.0256 6.83605 15.1542C8.71952 15.2828 10.58 14.6803 12.0306 13.472L17.0586 18.5L18 17.5586ZM1.35538 7.84744C1.35538 6.66232 1.70681 5.50382 2.36522 4.51843C3.02364 3.53304 3.95947 2.76502 5.05438 2.3115C6.14928 1.85797 7.35409 1.73931 8.51643 1.97051C9.67878 2.20172 10.7465 2.77241 11.5845 3.61041C12.4225 4.44842 12.9932 5.5161 13.2244 6.67845C13.4556 7.84079 13.3369 9.0456 12.8834 10.1405C12.4299 11.2354 11.6618 12.1712 10.6765 12.8297C9.69106 13.4881 8.53256 13.8395 7.34744 13.8395C5.75879 13.8377 4.23571 13.2059 3.11236 12.0825C1.98901 10.9592 1.35714 9.4361 1.35538 7.84744Z" fill="black"/>
</svg>
