<svg width="25" height="25" viewBox="0 0 25 25" fill="none" xmlns="http://www.w3.org/2000/svg">
<g id="&#240;&#159;&#166;&#134; icon &#34;shopping cart outline&#34;">
<g id="Group">
<path id="Vector" d="M21.9584 7.29154C21.7784 6.97969 21.5206 6.71981 21.2103 6.53725C20.8999 6.35468 20.5476 6.25568 20.1875 6.24988H6.85421L6.25004 3.89571C6.189 3.66846 6.05281 3.46857 5.86366 3.3286C5.67451 3.18863 5.44354 3.11682 5.20837 3.12488H3.12504C2.84877 3.12488 2.58382 3.23463 2.38847 3.42998C2.19312 3.62533 2.08337 3.89028 2.08337 4.16655C2.08337 4.44281 2.19312 4.70776 2.38847 4.90311C2.58382 5.09846 2.84877 5.20821 3.12504 5.20821H4.41671L7.29171 15.8957C7.35275 16.123 7.48894 16.3229 7.67809 16.4628C7.86724 16.6028 8.0982 16.6746 8.33337 16.6665H17.7084C17.9007 16.666 18.0892 16.6121 18.2528 16.511C18.4165 16.4099 18.5489 16.2654 18.6355 16.0936L22.0521 9.2603C22.2002 8.94989 22.2692 8.60766 22.2528 8.26413C22.2364 7.9206 22.1353 7.58647 21.9584 7.29154ZM17.0625 14.5832H9.12504L7.42712 8.33321H20.1875L17.0625 14.5832Z" fill="black"/>
<path id="Vector_2" d="M7.8125 21.875C8.67544 21.875 9.375 21.1754 9.375 20.3125C9.375 19.4496 8.67544 18.75 7.8125 18.75C6.94956 18.75 6.25 19.4496 6.25 20.3125C6.25 21.1754 6.94956 21.875 7.8125 21.875Z" fill="black"/>
<path id="Vector_3" d="M18.2291 21.875C19.0921 21.875 19.7916 21.1754 19.7916 20.3125C19.7916 19.4496 19.0921 18.75 18.2291 18.75C17.3662 18.75 16.6666 19.4496 16.6666 20.3125C16.6666 21.1754 17.3662 21.875 18.2291 21.875Z" fill="black"/>
</g>
</g>
</svg>
