<svg aria-hidden="true" style="position: absolute; width: 0; height: 0; overflow: hidden;" version="1.1" xmlns="http://www.w3.org/2000/svg" xmlns:xlink="http://www.w3.org/1999/xlink">
<defs>
<symbol id="icon-search" viewBox="0 0 30 32">
<path d="M30.316 29.572l-8.468-8.468c2.035-2.443 3.050-5.577 2.833-8.749s-1.648-6.139-3.996-8.283c-2.348-2.144-5.432-3.3-8.611-3.228s-6.207 1.367-8.455 3.615c-2.248 2.248-3.543 5.277-3.615 8.455s1.084 6.263 3.228 8.611c2.144 2.348 5.11 3.779 8.283 3.996s6.306-0.798 8.749-2.833l8.468 8.468 1.586-1.586zM2.283 13.217c0-1.996 0.592-3.947 1.701-5.607s2.685-2.953 4.529-3.717c1.844-0.764 3.873-0.964 5.831-0.574s3.756 1.351 5.167 2.762c1.411 1.411 2.373 3.21 2.762 5.167s0.189 3.987-0.574 5.831c-0.764 1.844-2.057 3.42-3.717 4.529s-3.611 1.701-5.607 1.701c-2.676-0.003-5.241-1.067-7.133-2.959s-2.956-4.457-2.959-7.133z"></path>
</symbol>
<symbol id="icon-shopping-cart" viewBox="0 0 32 32">
<path d="M28.107 9.333c-0.23-0.399-0.56-0.732-0.958-0.966s-0.848-0.36-1.309-0.368h-17.067l-0.773-3.013c-0.078-0.291-0.252-0.547-0.495-0.726s-0.538-0.271-0.839-0.261h-2.667c-0.354 0-0.693 0.14-0.943 0.391s-0.391 0.589-0.391 0.943c0 0.354 0.14 0.693 0.391 0.943s0.589 0.391 0.943 0.391h1.653l3.68 13.68c0.078 0.291 0.252 0.547 0.495 0.726s0.538 0.271 0.839 0.261h12c0.246-0.001 0.487-0.070 0.697-0.199s0.379-0.314 0.49-0.534l4.373-8.747c0.19-0.397 0.278-0.835 0.257-1.275s-0.15-0.867-0.377-1.245zM21.84 18.666h-10.16l-2.173-8h16.333l-4 8z"></path>
<path d="M10 28c1.105 0 2-0.895 2-2s-0.895-2-2-2c-1.105 0-2 0.895-2 2s0.895 2 2 2z"></path>
<path d="M23.333 28c1.105 0 2-0.895 2-2s-0.895-2-2-2c-1.105 0-2 0.895-2 2s0.895 2 2 2z"></path>
</symbol>
<symbol id="icon-star-full" viewBox="0 0 35 32">
<path fill="#ff9a03" style="fill: var(--color1, #ff9a03)" d="M16.119 1.031c0.579-1.375 2.551-1.375 3.13 0l3.417 8.116c0.244 0.58 0.796 0.976 1.43 1.026l8.869 0.702c1.503 0.119 2.112 1.972 0.967 2.941l-6.757 5.718c-0.483 0.408-0.694 1.049-0.546 1.66l2.064 8.55c0.35 1.449-1.245 2.594-2.532 1.817l-7.593-4.582c-0.542-0.327-1.224-0.327-1.767 0l-7.593 4.582c-1.287 0.776-2.882-0.369-2.532-1.817l2.064-8.55c0.147-0.611-0.063-1.252-0.546-1.66l-6.757-5.718c-1.145-0.969-0.536-2.822 0.967-2.941l8.869-0.702c0.633-0.050 1.185-0.446 1.429-1.026l3.417-8.116z"></path>
</symbol>
<symbol id="icon-tiktok" viewBox="0 0 28 32">
<path fill="#fff" style="fill: var(--color2, #fff)" d="M22.116 5.013c-1.215-1.387-1.885-3.169-1.884-5.013h-5.493v22.044c-0.042 1.193-0.546 2.323-1.405 3.152s-2.006 1.292-3.2 1.293c-2.524 0-4.622-2.062-4.622-4.622 0-3.058 2.951-5.351 5.991-4.409v-5.618c-6.133-0.818-11.502 3.947-11.502 10.027 0 5.92 4.907 10.133 10.116 10.133 5.582 0 10.116-4.533 10.116-10.133v-11.182c2.228 1.6 4.902 2.458 7.644 2.453v-5.493c0 0-3.342 0.16-5.76-2.631z"></path>
</symbol>
<symbol id="icon-profile" viewBox="0 0 28 32">
<path stroke-width="3.5556" stroke-miterlimit="4" stroke-linecap="round" stroke-linejoin="miter" d="M1.778 29.333v-1.481c0-4.909 4.179-8.889 9.333-8.889h6.222c5.155 0 9.333 3.98 9.333 8.889v1.481"></path>
<path stroke-width="3.5556" stroke-miterlimit="4" stroke-linecap="round" stroke-linejoin="miter" d="M14.222 14.518c-3.436 0-6.222-2.653-6.222-5.926s2.786-5.926 6.222-5.926c3.436 0 6.222 2.653 6.222 5.926s-2.786 5.926-6.222 5.926z"></path>
</symbol>
<symbol id="icon-mail" viewBox="0 0 45 32">
<path fill="#fff" stroke="#fff" stroke-width="2.6667" stroke-miterlimit="4" stroke-linecap="butt" stroke-linejoin="miter" style="fill: var(--color2, #fff); stroke: var(--color2, #fff)" d="M42.687 6.93v0l0.015-0.014c0.373-0.352 0.812-0.934 0.947-1.696 0.151-0.85-0.112-1.729-0.84-2.456-0.722-0.722-1.599-1.006-2.494-0.847-0.773 0.138-1.402 0.581-1.834 0.95l-15.814 12.753-15.789-12.752c-0.433-0.369-1.061-0.812-1.835-0.95-0.895-0.16-1.772 0.125-2.494 0.846-0.728 0.728-0.991 1.606-0.84 2.456 0.136 0.762 0.574 1.343 0.947 1.696l-0 0 9.835 9.011-9.505 9.898c-0.272 0.318-0.537 0.763-0.637 1.287-0.105 0.548-0.030 1.243 0.484 1.818 0.497 0.585 1.194 0.759 1.69 0.782s1.126-0.087 1.622-0.469l0.027-0.021 0.026-0.022 10.757-9.181 5.709 5.226 5.738-5.228 10.811 9.226c0.496 0.381 1.125 0.491 1.622 0.469s1.193-0.198 1.69-0.782c0.515-0.574 0.59-1.27 0.485-1.818-0.101-0.523-0.365-0.969-0.637-1.287l-0.025-0.029-0.026-0.027-9.454-9.842 9.82-8.998zM44.027 4v24c0 1.477-1.19 2.667-2.667 2.667h-37.36c-1.477 0-2.667-1.19-2.667-2.667v-24c0-1.477 1.19-2.667 2.667-2.667h37.36c1.477 0 2.667 1.19 2.667 2.667z"></path>
</symbol>
<symbol id="icon-header-logo" viewBox="0 0 54 32">
<path fill="none" stroke="#0ba3f8" stroke-width="1.3061" stroke-miterlimit="4" stroke-linecap="butt" stroke-linejoin="miter" style="stroke: var(--color3, #0ba3f8)" d="M0.653 0.653h52.245v30.694h-52.245v-30.694z"></path>
<path fill="#061620" style="fill: var(--color4, #061620)" d="M21.251 13.388h-1.787l-2.988-4.524v4.524h-1.787v-7.335h1.787l2.988 4.545v-4.545h1.787v7.335zM23.444 6.951c-0.313 0-0.571-0.091-0.773-0.272-0.195-0.188-0.293-0.418-0.293-0.69 0-0.279 0.098-0.509 0.293-0.69 0.202-0.188 0.46-0.282 0.773-0.282 0.306 0 0.557 0.094 0.752 0.282 0.202 0.181 0.303 0.411 0.303 0.69 0 0.272-0.101 0.502-0.303 0.69-0.195 0.181-0.446 0.272-0.752 0.272zM24.333 7.557v5.831h-1.787v-5.831h1.787zM38.164 10.378c0 0.167-0.010 0.341-0.031 0.522h-4.044c0.028 0.362 0.143 0.641 0.345 0.836 0.209 0.188 0.463 0.282 0.763 0.282 0.446 0 0.756-0.188 0.93-0.564h1.902c-0.098 0.383-0.275 0.728-0.533 1.034-0.251 0.306-0.568 0.547-0.951 0.721s-0.812 0.261-1.285 0.261c-0.571 0-1.080-0.122-1.526-0.366s-0.794-0.592-1.045-1.045-0.376-0.982-0.376-1.588c0-0.606 0.122-1.135 0.366-1.588 0.251-0.453 0.599-0.801 1.045-1.045s0.958-0.366 1.536-0.366c0.564 0 1.066 0.118 1.505 0.355s0.78 0.575 1.024 1.014c0.251 0.439 0.376 0.951 0.376 1.536zM36.336 9.908c0-0.306-0.105-0.55-0.313-0.731s-0.47-0.272-0.784-0.272c-0.3 0-0.554 0.087-0.763 0.261-0.202 0.174-0.327 0.421-0.376 0.742h2.236z"></path>
<path fill="#0ba3f8" style="fill: var(--color3, #0ba3f8)" d="M29.18 7.495c0.683 0 1.226 0.223 1.63 0.669 0.411 0.439 0.616 1.045 0.616 1.818v3.406h-1.776v-3.166c0-0.39-0.101-0.693-0.303-0.909s-0.474-0.324-0.815-0.324c-0.341 0-0.613 0.108-0.815 0.324s-0.303 0.519-0.303 0.909v3.166h-1.787v-5.831h1.787v0.773c0.181-0.258 0.425-0.46 0.731-0.606 0.306-0.153 0.651-0.23 1.034-0.23z"></path>
<path fill="#061620" style="fill: var(--color4, #061620)" d="M11.556 19.114v1.431h-2.988v1.546h2.236v1.39h-2.236v2.968h-1.787v-7.335h4.775zM21.959 26.533c-0.509 0-0.961-0.087-1.358-0.261s-0.711-0.411-0.94-0.711c-0.23-0.306-0.359-0.648-0.387-1.024h1.766c0.021 0.202 0.115 0.366 0.282 0.491s0.373 0.188 0.616 0.188c0.223 0 0.394-0.042 0.512-0.125 0.125-0.091 0.188-0.206 0.188-0.345 0-0.167-0.087-0.289-0.261-0.366-0.174-0.084-0.456-0.174-0.846-0.272-0.418-0.098-0.766-0.199-1.045-0.303-0.279-0.111-0.519-0.282-0.721-0.512-0.202-0.237-0.303-0.554-0.303-0.951 0-0.334 0.091-0.637 0.272-0.909 0.188-0.279 0.46-0.498 0.815-0.658 0.362-0.16 0.791-0.24 1.285-0.24 0.731 0 1.306 0.181 1.724 0.543 0.425 0.362 0.669 0.843 0.731 1.442h-1.651c-0.028-0.202-0.118-0.362-0.272-0.481-0.146-0.118-0.341-0.178-0.585-0.178-0.209 0-0.369 0.042-0.481 0.125-0.111 0.077-0.167 0.185-0.167 0.324 0 0.167 0.087 0.293 0.261 0.376 0.181 0.084 0.46 0.167 0.836 0.251 0.432 0.111 0.784 0.223 1.055 0.334 0.272 0.105 0.509 0.279 0.711 0.522 0.209 0.237 0.317 0.557 0.324 0.961 0 0.341-0.098 0.648-0.293 0.919-0.188 0.265-0.463 0.474-0.825 0.627-0.355 0.153-0.77 0.23-1.243 0.23zM28.997 20.556c0.669 0 1.205 0.223 1.609 0.669 0.404 0.439 0.606 1.045 0.606 1.818v3.406h-1.776v-3.166c0-0.39-0.101-0.693-0.303-0.909s-0.474-0.324-0.815-0.324c-0.341 0-0.613 0.108-0.815 0.324s-0.303 0.519-0.303 0.909v3.166h-1.787v-7.732h1.787v2.685c0.181-0.258 0.428-0.463 0.742-0.616s0.665-0.23 1.055-0.23zM33.353 20.012c-0.313 0-0.571-0.091-0.773-0.272-0.195-0.188-0.293-0.418-0.293-0.69 0-0.279 0.098-0.509 0.293-0.69 0.202-0.188 0.46-0.282 0.773-0.282 0.307 0 0.557 0.094 0.752 0.282 0.202 0.181 0.303 0.411 0.303 0.69 0 0.272-0.101 0.502-0.303 0.69-0.195 0.181-0.446 0.272-0.752 0.272zM34.241 20.618v5.831h-1.787v-5.831h1.787zM38.19 26.533c-0.571 0-1.087-0.122-1.546-0.366-0.453-0.244-0.812-0.592-1.076-1.045-0.258-0.453-0.387-0.982-0.387-1.588 0-0.599 0.132-1.125 0.397-1.578 0.265-0.46 0.627-0.812 1.087-1.055s0.975-0.366 1.546-0.366c0.571 0 1.087 0.122 1.546 0.366s0.822 0.596 1.087 1.055c0.265 0.453 0.397 0.979 0.397 1.578s-0.136 1.128-0.407 1.588c-0.265 0.453-0.63 0.801-1.097 1.045-0.46 0.244-0.975 0.366-1.546 0.366zM38.19 24.986c0.341 0 0.63-0.125 0.867-0.376 0.244-0.251 0.366-0.61 0.366-1.076s-0.118-0.825-0.355-1.076c-0.23-0.251-0.516-0.376-0.857-0.376-0.348 0-0.637 0.125-0.867 0.376-0.23 0.244-0.345 0.603-0.345 1.076 0 0.467 0.111 0.825 0.334 1.076 0.23 0.251 0.515 0.376 0.857 0.376zM45.741 20.556c0.683 0 1.226 0.223 1.63 0.669 0.411 0.439 0.617 1.045 0.617 1.818v3.406h-1.776v-3.166c0-0.39-0.101-0.693-0.303-0.909s-0.474-0.324-0.815-0.324c-0.341 0-0.613 0.108-0.815 0.324s-0.303 0.519-0.303 0.909v3.166h-1.787v-5.831h1.787v0.773c0.181-0.258 0.425-0.46 0.731-0.606 0.306-0.153 0.651-0.23 1.034-0.23z"></path>
<path fill="#0ba3f8" style="fill: var(--color3, #0ba3f8)" d="M12.139 23.523c0-0.599 0.111-1.125 0.334-1.578 0.23-0.453 0.54-0.801 0.93-1.045s0.825-0.366 1.306-0.366c0.411 0 0.77 0.084 1.076 0.251 0.313 0.167 0.554 0.387 0.721 0.658v-0.825h1.787v5.831h-1.787v-0.825c-0.174 0.272-0.418 0.491-0.731 0.658-0.306 0.167-0.665 0.251-1.076 0.251-0.474 0-0.906-0.122-1.296-0.366-0.39-0.251-0.7-0.603-0.93-1.055-0.223-0.46-0.334-0.989-0.334-1.588zM16.507 23.534c0-0.446-0.125-0.798-0.376-1.055-0.244-0.258-0.543-0.387-0.899-0.387s-0.658 0.129-0.909 0.387c-0.244 0.251-0.366 0.599-0.366 1.045s0.122 0.801 0.366 1.066c0.251 0.258 0.554 0.387 0.909 0.387s0.655-0.129 0.899-0.387c0.251-0.258 0.376-0.61 0.376-1.055z"></path>
</symbol>
<symbol id="icon-footer-logo" viewBox="0 0 45 32">
<path fill="none" stroke="#0ba3f8" stroke-width="1.0323" stroke-miterlimit="4" stroke-linecap="butt" stroke-linejoin="miter" style="stroke: var(--color3, #0ba3f8)" d="M0.516 0.516h43.871v30.968h-43.871v-30.968z"></path>
<path fill="#fff" style="fill: var(--color2, #fff)" d="M17.569 11.871h-1.412l-2.362-3.576v3.576h-1.412v-5.797h1.412l2.362 3.592v-3.592h1.412v5.797zM19.303 6.784c-0.248 0-0.451-0.072-0.611-0.215-0.154-0.149-0.231-0.33-0.231-0.545 0-0.22 0.077-0.402 0.231-0.545 0.16-0.149 0.363-0.223 0.611-0.223 0.242 0 0.44 0.074 0.595 0.223 0.16 0.143 0.239 0.325 0.239 0.545 0 0.215-0.080 0.396-0.239 0.545-0.154 0.143-0.352 0.215-0.595 0.215zM20.005 7.263v4.608h-1.412v-4.608h1.412zM30.936 9.493c0 0.132-0.008 0.27-0.025 0.413h-3.196c0.022 0.286 0.113 0.506 0.273 0.661 0.165 0.149 0.366 0.223 0.603 0.223 0.352 0 0.597-0.149 0.735-0.446h1.503c-0.077 0.303-0.218 0.575-0.421 0.818-0.198 0.242-0.449 0.432-0.751 0.57s-0.641 0.206-1.016 0.206c-0.451 0-0.853-0.096-1.206-0.289s-0.628-0.468-0.826-0.826-0.297-0.776-0.297-1.255c0-0.479 0.096-0.897 0.289-1.255 0.198-0.358 0.473-0.633 0.826-0.826s0.757-0.289 1.214-0.289c0.446 0 0.842 0.094 1.189 0.281s0.617 0.454 0.809 0.801c0.198 0.347 0.297 0.751 0.297 1.214zM29.491 9.121c0-0.242-0.083-0.435-0.248-0.578s-0.372-0.215-0.619-0.215c-0.237 0-0.438 0.069-0.603 0.206-0.16 0.138-0.259 0.333-0.297 0.586h1.767z"></path>
<path fill="#0ba3f8" style="fill: var(--color3, #0ba3f8)" d="M23.836 7.213c0.54 0 0.969 0.176 1.288 0.529 0.325 0.347 0.487 0.826 0.487 1.437v2.692h-1.404v-2.502c0-0.308-0.080-0.548-0.239-0.718s-0.374-0.256-0.644-0.256c-0.27 0-0.485 0.085-0.644 0.256s-0.239 0.41-0.239 0.718v2.502h-1.412v-4.608h1.412v0.611c0.143-0.204 0.336-0.363 0.578-0.479 0.242-0.121 0.515-0.182 0.818-0.182z"></path>
<path fill="#fff" style="fill: var(--color2, #fff)" d="M10.681 17.945v1.131h-2.362v1.222h1.767v1.098h-1.767v2.345h-1.412v-5.797h3.774zM18.903 23.808c-0.402 0-0.76-0.069-1.074-0.206s-0.562-0.325-0.743-0.562c-0.182-0.242-0.284-0.512-0.306-0.809h1.396c0.017 0.16 0.091 0.289 0.223 0.388s0.295 0.149 0.487 0.149c0.176 0 0.311-0.033 0.405-0.099 0.099-0.072 0.149-0.162 0.149-0.273 0-0.132-0.069-0.229-0.206-0.289-0.138-0.066-0.361-0.138-0.669-0.215-0.33-0.077-0.606-0.157-0.826-0.239-0.22-0.088-0.41-0.223-0.57-0.405-0.16-0.187-0.239-0.438-0.239-0.751 0-0.264 0.072-0.504 0.215-0.718 0.149-0.22 0.363-0.394 0.644-0.52 0.286-0.127 0.625-0.19 1.016-0.19 0.578 0 1.032 0.143 1.363 0.429 0.336 0.286 0.529 0.666 0.578 1.14h-1.305c-0.022-0.16-0.094-0.286-0.215-0.38-0.116-0.094-0.27-0.14-0.462-0.14-0.165 0-0.292 0.033-0.38 0.099-0.088 0.061-0.132 0.146-0.132 0.256 0 0.132 0.069 0.231 0.206 0.297 0.143 0.066 0.363 0.132 0.661 0.198 0.341 0.088 0.619 0.176 0.834 0.264 0.215 0.083 0.402 0.22 0.562 0.413 0.165 0.187 0.25 0.44 0.256 0.76 0 0.27-0.077 0.512-0.231 0.727-0.149 0.209-0.366 0.374-0.652 0.495-0.281 0.121-0.608 0.182-0.983 0.182zM24.465 19.084c0.529 0 0.952 0.176 1.272 0.529 0.319 0.347 0.479 0.826 0.479 1.437v2.692h-1.404v-2.502c0-0.308-0.080-0.548-0.239-0.718s-0.374-0.256-0.644-0.256c-0.27 0-0.485 0.085-0.644 0.256s-0.239 0.41-0.239 0.718v2.502h-1.412v-6.111h1.412v2.122c0.143-0.204 0.339-0.366 0.586-0.487s0.526-0.182 0.834-0.182zM27.908 18.655c-0.248 0-0.451-0.072-0.611-0.215-0.154-0.149-0.231-0.33-0.231-0.545 0-0.22 0.077-0.402 0.231-0.545 0.16-0.149 0.363-0.223 0.611-0.223 0.242 0 0.44 0.074 0.595 0.223 0.16 0.143 0.239 0.325 0.239 0.545 0 0.215-0.080 0.396-0.239 0.545-0.154 0.143-0.352 0.215-0.595 0.215zM28.61 19.134v4.608h-1.412v-4.608h1.412zM31.731 23.808c-0.451 0-0.859-0.096-1.222-0.289-0.358-0.193-0.641-0.468-0.851-0.826-0.204-0.358-0.306-0.776-0.306-1.255 0-0.473 0.105-0.889 0.314-1.247 0.209-0.363 0.495-0.641 0.859-0.834s0.771-0.289 1.222-0.289c0.451 0 0.859 0.096 1.222 0.289s0.65 0.471 0.859 0.834c0.209 0.358 0.314 0.774 0.314 1.247s-0.107 0.892-0.322 1.255c-0.209 0.358-0.498 0.633-0.867 0.826-0.363 0.193-0.771 0.289-1.222 0.289zM31.731 22.586c0.27 0 0.498-0.099 0.685-0.297 0.193-0.198 0.289-0.482 0.289-0.851s-0.094-0.652-0.281-0.851c-0.182-0.198-0.407-0.297-0.677-0.297-0.275 0-0.504 0.099-0.685 0.297-0.182 0.193-0.273 0.476-0.273 0.851 0 0.369 0.088 0.652 0.264 0.851 0.182 0.198 0.407 0.297 0.677 0.297zM37.699 19.084c0.539 0 0.969 0.176 1.288 0.529 0.325 0.347 0.487 0.826 0.487 1.437v2.692h-1.404v-2.502c0-0.308-0.080-0.548-0.239-0.718s-0.374-0.256-0.644-0.256c-0.27 0-0.484 0.085-0.644 0.256s-0.239 0.41-0.239 0.718v2.502h-1.412v-4.608h1.412v0.611c0.143-0.204 0.336-0.363 0.578-0.479 0.242-0.121 0.515-0.182 0.818-0.182z"></path>
<path fill="#0ba3f8" style="fill: var(--color3, #0ba3f8)" d="M11.143 21.43c0-0.473 0.088-0.889 0.264-1.247 0.182-0.358 0.427-0.633 0.735-0.826s0.652-0.289 1.032-0.289c0.325 0 0.608 0.066 0.851 0.198 0.248 0.132 0.438 0.306 0.57 0.52v-0.652h1.412v4.608h-1.412v-0.652c-0.138 0.215-0.33 0.388-0.578 0.52-0.242 0.132-0.526 0.198-0.851 0.198-0.374 0-0.716-0.096-1.024-0.289-0.308-0.198-0.553-0.476-0.735-0.834-0.176-0.363-0.264-0.782-0.264-1.255zM14.594 21.438c0-0.352-0.099-0.63-0.297-0.834-0.193-0.204-0.429-0.306-0.71-0.306s-0.52 0.102-0.718 0.306c-0.193 0.198-0.289 0.473-0.289 0.826s0.096 0.633 0.289 0.842c0.198 0.204 0.438 0.306 0.718 0.306s0.518-0.102 0.71-0.306c0.198-0.204 0.297-0.482 0.297-0.834z"></path>
</symbol>
<symbol id="icon-caret-left" viewBox="0 0 31 32">
<path fill="#e9d0d0" style="fill: var(--color5, #e9d0d0)" d="M6.122 16l13.774 13.774 2.143-2.296-11.325-11.478 11.325-11.478-2.143-2.296-13.774 13.774z"></path>
</symbol>
<symbol id="icon-caret-right" viewBox="0 0 31 32">
<path fill="#eee9e9" style="fill: var(--color6, #eee9e9)" d="M24.487 16l-13.774-13.774-2.143 2.296 11.325 11.478-11.325 11.478 2.143 2.296 13.774-13.774z"></path>
</symbol>
<symbol id="icon-arrow-curved" viewBox="0 0 32 32">
<path fill="#607d8b" style="fill: var(--color7, #607d8b)" d="M24.533 14.133c-2.467-2.133-5.667-3.467-9.2-3.467-6.2 0-11.44 4.040-13.28 9.627l3.147 1.040c0.702-2.133 2.060-3.991 3.879-5.307s4.008-2.026 6.254-2.026c2.6 0 4.973 0.96 6.827 2.507l-4.827 4.827h12v-12l-4.8 4.8z"></path>
</symbol>
<symbol id="icon-twitter" viewBox="0 0 32 32">
<path fill="#fff" style="fill: var(--color2, #fff)" d="M27.964 8.957c-0.619 0.826-1.368 1.547-2.217 2.134 0 0.216 0 0.432 0 0.659 0.007 3.918-1.558 7.676-4.345 10.43s-6.561 4.274-10.477 4.219c-2.264 0.008-4.499-0.509-6.53-1.51-0.11-0.048-0.18-0.156-0.18-0.276v-0.132c0-0.172 0.139-0.312 0.312-0.312 2.226-0.073 4.372-0.845 6.135-2.206-2.014-0.041-3.827-1.234-4.661-3.069-0.042-0.1-0.029-0.215 0.035-0.303s0.169-0.137 0.277-0.128c0.612 0.061 1.231 0.005 1.821-0.168-2.224-0.462-3.895-2.308-4.134-4.567-0.009-0.108 0.040-0.213 0.128-0.277s0.203-0.077 0.303-0.035c0.597 0.263 1.241 0.402 1.893 0.407-1.949-1.279-2.79-3.711-2.049-5.922 0.077-0.215 0.26-0.373 0.484-0.418s0.454 0.032 0.606 0.202c2.629 2.798 6.242 4.466 10.077 4.651-0.098-0.392-0.146-0.795-0.144-1.199 0.036-2.119 1.347-4.006 3.319-4.778s4.215-0.277 5.679 1.254c0.998-0.19 1.963-0.525 2.864-0.995 0.066-0.041 0.15-0.041 0.216 0 0.041 0.066 0.041 0.15 0 0.216-0.436 0.999-1.174 1.837-2.109 2.398 0.819-0.095 1.623-0.288 2.396-0.575 0.065-0.044 0.151-0.044 0.216 0 0.055 0.025 0.095 0.073 0.111 0.13s0.006 0.12-0.028 0.169z"></path>
</symbol>
<symbol id="icon-jam-box" viewBox="0 0 32 32">
<path d="M6.667 5.333h18.667c1.061 0 2.078 0.421 2.828 1.172s1.172 1.768 1.172 2.828v13.333c0 1.061-0.421 2.078-1.172 2.828s-1.768 1.172-2.828 1.172h-18.667c-1.061 0-2.078-0.421-2.828-1.172s-1.172-1.768-1.172-2.828v-13.333c0-1.061 0.421-2.078 1.172-2.828s1.768-1.172 2.828-1.172zM6.667 8c-0.354 0-0.693 0.14-0.943 0.391s-0.391 0.589-0.391 0.943v13.333c0 0.354 0.14 0.693 0.391 0.943s0.589 0.391 0.943 0.391h18.667c0.354 0 0.693-0.141 0.943-0.391s0.391-0.589 0.391-0.943v-13.333c0-0.354-0.141-0.693-0.391-0.943s-0.589-0.391-0.943-0.391h-18.667zM21.165 14.667c-0.297 1.144-0.965 2.158-1.9 2.881s-2.084 1.116-3.266 1.116-2.331-0.393-3.266-1.116c-0.935-0.723-1.603-1.737-1.9-2.881h-5.501v-2.667h21.333v2.667h-5.501zM18.309 14.667h-4.619c0.234 0.405 0.571 0.742 0.976 0.976s0.865 0.357 1.333 0.357 0.928-0.123 1.333-0.357c0.405-0.234 0.742-0.571 0.976-0.976z"></path>
</symbol>
<symbol id="icon-instagram" viewBox="0 0 32 32">
<path fill="#fff" style="fill: var(--color2, #fff)" d="M21.333 4h-10.667c-3.682 0-6.667 2.985-6.667 6.667v10.667c0 3.682 2.985 6.667 6.667 6.667h10.667c3.682 0 6.667-2.985 6.667-6.667v-10.667c0-3.682-2.985-6.667-6.667-6.667zM25.667 21.333c-0.007 2.39-1.943 4.326-4.333 4.333h-10.667c-2.39-0.007-4.326-1.943-4.333-4.333v-10.667c0.007-2.39 1.943-4.326 4.333-4.333h10.667c2.39 0.007 4.326 1.943 4.333 4.333v10.667zM22.333 11c-0.736 0-1.333-0.597-1.333-1.333s0.597-1.333 1.333-1.333c0.736 0 1.333 0.597 1.333 1.333s-0.597 1.333-1.333 1.333zM16 10c1.592-0.004 3.121 0.627 4.247 1.753s1.757 2.654 1.753 4.247c0 3.314-2.686 6-6 6s-6-2.686-6-6c0-3.314 2.686-6 6-6zM12.333 16c0 2.025 1.642 3.667 3.667 3.667s3.667-1.642 3.667-3.667c0-2.025-1.642-3.667-3.667-3.667s-3.667 1.642-3.667 3.667z"></path>
</symbol>
<symbol id="icon-facebook" viewBox="0 0 32 32">
<path fill="#fff" style="fill: var(--color2, #fff)" d="M22 8h-4c-0.736 0-1.333 0.597-1.333 1.333v4h5.333c0.152-0.003 0.295 0.067 0.386 0.189s0.115 0.28 0.068 0.424l-0.987 2.933c-0.091 0.269-0.343 0.451-0.627 0.453h-4.173v10c0 0.368-0.299 0.667-0.667 0.667h-3.333c-0.368 0-0.667-0.299-0.667-0.667v-10h-2c-0.368 0-0.667-0.299-0.667-0.667v-2.667c0-0.368 0.298-0.667 0.667-0.667h2v-4c0-2.946 2.388-5.333 5.333-5.333h4.667c0.368 0 0.667 0.298 0.667 0.667v2.667c0 0.368-0.299 0.667-0.667 0.667z"></path>
</symbol>
</defs>
</svg>
