<!-- Generated by IcoMoon.io -->
<svg version="1.1" xmlns="http://www.w3.org/2000/svg" width="32" height="32" viewBox="0 0 32 32">
<title>facebook</title>
<path fill="#fff" d="M22 8h-4c-0.736 0-1.333 0.597-1.333 1.333v4h5.333c0.152-0.003 0.295 0.067 0.386 0.189s0.115 0.28 0.068 0.424l-0.987 2.933c-0.091 0.269-0.343 0.451-0.627 0.453h-4.173v10c0 0.368-0.299 0.667-0.667 0.667h-3.333c-0.368 0-0.667-0.299-0.667-0.667v-10h-2c-0.368 0-0.667-0.299-0.667-0.667v-2.667c0-0.368 0.298-0.667 0.667-0.667h2v-4c0-2.946 2.388-5.333 5.333-5.333h4.667c0.368 0 0.667 0.298 0.667 0.667v2.667c0 0.368-0.299 0.667-0.667 0.667z"></path>
</svg>
