<!-- Generated by IcoMoon.io -->
<svg version="1.1" xmlns="http://www.w3.org/2000/svg" width="45" height="32" viewBox="0 0 45 32">
<title>footer-logo</title>
<path fill="none" stroke="#0ba3f8" stroke-width="1.0323" stroke-miterlimit="4" stroke-linecap="butt" stroke-linejoin="miter" d="M0.516 0.516h43.871v30.968h-43.871v-30.968z"></path>
<path fill="#fff" d="M17.569 11.871h-1.412l-2.362-3.576v3.576h-1.412v-5.797h1.412l2.362 3.592v-3.592h1.412v5.797zM19.303 6.784c-0.248 0-0.451-0.072-0.611-0.215-0.154-0.149-0.231-0.33-0.231-0.545 0-0.22 0.077-0.402 0.231-0.545 0.16-0.149 0.363-0.223 0.611-0.223 0.242 0 0.44 0.074 0.595 0.223 0.16 0.143 0.239 0.325 0.239 0.545 0 0.215-0.080 0.396-0.239 0.545-0.154 0.143-0.352 0.215-0.595 0.215zM20.005 7.263v4.608h-1.412v-4.608h1.412zM30.936 9.493c0 0.132-0.008 0.27-0.025 0.413h-3.196c0.022 0.286 0.113 0.506 0.273 0.661 0.165 0.149 0.366 0.223 0.603 0.223 0.352 0 0.597-0.149 0.735-0.446h1.503c-0.077 0.303-0.218 0.575-0.421 0.818-0.198 0.242-0.449 0.432-0.751 0.57s-0.641 0.206-1.016 0.206c-0.451 0-0.853-0.096-1.206-0.289s-0.628-0.468-0.826-0.826-0.297-0.776-0.297-1.255c0-0.479 0.096-0.897 0.289-1.255 0.198-0.358 0.473-0.633 0.826-0.826s0.757-0.289 1.214-0.289c0.446 0 0.842 0.094 1.189 0.281s0.617 0.454 0.809 0.801c0.198 0.347 0.297 0.751 0.297 1.214zM29.491 9.121c0-0.242-0.083-0.435-0.248-0.578s-0.372-0.215-0.619-0.215c-0.237 0-0.438 0.069-0.603 0.206-0.16 0.138-0.259 0.333-0.297 0.586h1.767z"></path>
<path fill="#0ba3f8" d="M23.836 7.213c0.54 0 0.969 0.176 1.288 0.529 0.325 0.347 0.487 0.826 0.487 1.437v2.692h-1.404v-2.502c0-0.308-0.080-0.548-0.239-0.718s-0.374-0.256-0.644-0.256c-0.27 0-0.485 0.085-0.644 0.256s-0.239 0.41-0.239 0.718v2.502h-1.412v-4.608h1.412v0.611c0.143-0.204 0.336-0.363 0.578-0.479 0.242-0.121 0.515-0.182 0.818-0.182z"></path>
<path fill="#fff" d="M10.681 17.945v1.131h-2.362v1.222h1.767v1.098h-1.767v2.345h-1.412v-5.797h3.774zM18.903 23.808c-0.402 0-0.76-0.069-1.074-0.206s-0.562-0.325-0.743-0.562c-0.182-0.242-0.284-0.512-0.306-0.809h1.396c0.017 0.16 0.091 0.289 0.223 0.388s0.295 0.149 0.487 0.149c0.176 0 0.311-0.033 0.405-0.099 0.099-0.072 0.149-0.162 0.149-0.273 0-0.132-0.069-0.229-0.206-0.289-0.138-0.066-0.361-0.138-0.669-0.215-0.33-0.077-0.606-0.157-0.826-0.239-0.22-0.088-0.41-0.223-0.57-0.405-0.16-0.187-0.239-0.438-0.239-0.751 0-0.264 0.072-0.504 0.215-0.718 0.149-0.22 0.363-0.394 0.644-0.52 0.286-0.127 0.625-0.19 1.016-0.19 0.578 0 1.032 0.143 1.363 0.429 0.336 0.286 0.529 0.666 0.578 1.14h-1.305c-0.022-0.16-0.094-0.286-0.215-0.38-0.116-0.094-0.27-0.14-0.462-0.14-0.165 0-0.292 0.033-0.38 0.099-0.088 0.061-0.132 0.146-0.132 0.256 0 0.132 0.069 0.231 0.206 0.297 0.143 0.066 0.363 0.132 0.661 0.198 0.341 0.088 0.619 0.176 0.834 0.264 0.215 0.083 0.402 0.22 0.562 0.413 0.165 0.187 0.25 0.44 0.256 0.76 0 0.27-0.077 0.512-0.231 0.727-0.149 0.209-0.366 0.374-0.652 0.495-0.281 0.121-0.608 0.182-0.983 0.182zM24.465 19.084c0.529 0 0.952 0.176 1.272 0.529 0.319 0.347 0.479 0.826 0.479 1.437v2.692h-1.404v-2.502c0-0.308-0.080-0.548-0.239-0.718s-0.374-0.256-0.644-0.256c-0.27 0-0.485 0.085-0.644 0.256s-0.239 0.41-0.239 0.718v2.502h-1.412v-6.111h1.412v2.122c0.143-0.204 0.339-0.366 0.586-0.487s0.526-0.182 0.834-0.182zM27.908 18.655c-0.248 0-0.451-0.072-0.611-0.215-0.154-0.149-0.231-0.33-0.231-0.545 0-0.22 0.077-0.402 0.231-0.545 0.16-0.149 0.363-0.223 0.611-0.223 0.242 0 0.44 0.074 0.595 0.223 0.16 0.143 0.239 0.325 0.239 0.545 0 0.215-0.080 0.396-0.239 0.545-0.154 0.143-0.352 0.215-0.595 0.215zM28.61 19.134v4.608h-1.412v-4.608h1.412zM31.731 23.808c-0.451 0-0.859-0.096-1.222-0.289-0.358-0.193-0.641-0.468-0.851-0.826-0.204-0.358-0.306-0.776-0.306-1.255 0-0.473 0.105-0.889 0.314-1.247 0.209-0.363 0.495-0.641 0.859-0.834s0.771-0.289 1.222-0.289c0.451 0 0.859 0.096 1.222 0.289s0.65 0.471 0.859 0.834c0.209 0.358 0.314 0.774 0.314 1.247s-0.107 0.892-0.322 1.255c-0.209 0.358-0.498 0.633-0.867 0.826-0.363 0.193-0.771 0.289-1.222 0.289zM31.731 22.586c0.27 0 0.498-0.099 0.685-0.297 0.193-0.198 0.289-0.482 0.289-0.851s-0.094-0.652-0.281-0.851c-0.182-0.198-0.407-0.297-0.677-0.297-0.275 0-0.504 0.099-0.685 0.297-0.182 0.193-0.273 0.476-0.273 0.851 0 0.369 0.088 0.652 0.264 0.851 0.182 0.198 0.407 0.297 0.677 0.297zM37.699 19.084c0.539 0 0.969 0.176 1.288 0.529 0.325 0.347 0.487 0.826 0.487 1.437v2.692h-1.404v-2.502c0-0.308-0.080-0.548-0.239-0.718s-0.374-0.256-0.644-0.256c-0.27 0-0.484 0.085-0.644 0.256s-0.239 0.41-0.239 0.718v2.502h-1.412v-4.608h1.412v0.611c0.143-0.204 0.336-0.363 0.578-0.479 0.242-0.121 0.515-0.182 0.818-0.182z"></path>
<path fill="#0ba3f8" d="M11.143 21.43c0-0.473 0.088-0.889 0.264-1.247 0.182-0.358 0.427-0.633 0.735-0.826s0.652-0.289 1.032-0.289c0.325 0 0.608 0.066 0.851 0.198 0.248 0.132 0.438 0.306 0.57 0.52v-0.652h1.412v4.608h-1.412v-0.652c-0.138 0.215-0.33 0.388-0.578 0.52-0.242 0.132-0.526 0.198-0.851 0.198-0.374 0-0.716-0.096-1.024-0.289-0.308-0.198-0.553-0.476-0.735-0.834-0.176-0.363-0.264-0.782-0.264-1.255zM14.594 21.438c0-0.352-0.099-0.63-0.297-0.834-0.193-0.204-0.429-0.306-0.71-0.306s-0.52 0.102-0.718 0.306c-0.193 0.198-0.289 0.473-0.289 0.826s0.096 0.633 0.289 0.842c0.198 0.204 0.438 0.306 0.718 0.306s0.518-0.102 0.71-0.306c0.198-0.204 0.297-0.482 0.297-0.834z"></path>
</svg>
