<!-- Generated by IcoMoon.io -->
<svg version="1.1" xmlns="http://www.w3.org/2000/svg" width="54" height="32" viewBox="0 0 54 32">
<title>header-logo</title>
<path fill="none" stroke="#0ba3f8" stroke-width="1.3061" stroke-miterlimit="4" stroke-linecap="butt" stroke-linejoin="miter" d="M0.653 0.653h52.245v30.694h-52.245v-30.694z"></path>
<path fill="#061620" d="M21.251 13.388h-1.787l-2.988-4.524v4.524h-1.787v-7.335h1.787l2.988 4.545v-4.545h1.787v7.335zM23.444 6.951c-0.313 0-0.571-0.091-0.773-0.272-0.195-0.188-0.293-0.418-0.293-0.69 0-0.279 0.098-0.509 0.293-0.69 0.202-0.188 0.46-0.282 0.773-0.282 0.306 0 0.557 0.094 0.752 0.282 0.202 0.181 0.303 0.411 0.303 0.69 0 0.272-0.101 0.502-0.303 0.69-0.195 0.181-0.446 0.272-0.752 0.272zM24.333 7.557v5.831h-1.787v-5.831h1.787zM38.164 10.378c0 0.167-0.010 0.341-0.031 0.522h-4.044c0.028 0.362 0.143 0.641 0.345 0.836 0.209 0.188 0.463 0.282 0.763 0.282 0.446 0 0.756-0.188 0.93-0.564h1.902c-0.098 0.383-0.275 0.728-0.533 1.034-0.251 0.306-0.568 0.547-0.951 0.721s-0.812 0.261-1.285 0.261c-0.571 0-1.080-0.122-1.526-0.366s-0.794-0.592-1.045-1.045-0.376-0.982-0.376-1.588c0-0.606 0.122-1.135 0.366-1.588 0.251-0.453 0.599-0.801 1.045-1.045s0.958-0.366 1.536-0.366c0.564 0 1.066 0.118 1.505 0.355s0.78 0.575 1.024 1.014c0.251 0.439 0.376 0.951 0.376 1.536zM36.336 9.908c0-0.306-0.105-0.55-0.313-0.731s-0.47-0.272-0.784-0.272c-0.3 0-0.554 0.087-0.763 0.261-0.202 0.174-0.327 0.421-0.376 0.742h2.236z"></path>
<path fill="#0ba3f8" d="M29.18 7.495c0.683 0 1.226 0.223 1.63 0.669 0.411 0.439 0.616 1.045 0.616 1.818v3.406h-1.776v-3.166c0-0.39-0.101-0.693-0.303-0.909s-0.474-0.324-0.815-0.324c-0.341 0-0.613 0.108-0.815 0.324s-0.303 0.519-0.303 0.909v3.166h-1.787v-5.831h1.787v0.773c0.181-0.258 0.425-0.46 0.731-0.606 0.306-0.153 0.651-0.23 1.034-0.23z"></path>
<path fill="#061620" d="M11.556 19.114v1.431h-2.988v1.546h2.236v1.39h-2.236v2.968h-1.787v-7.335h4.775zM21.959 26.533c-0.509 0-0.961-0.087-1.358-0.261s-0.711-0.411-0.94-0.711c-0.23-0.306-0.359-0.648-0.387-1.024h1.766c0.021 0.202 0.115 0.366 0.282 0.491s0.373 0.188 0.616 0.188c0.223 0 0.394-0.042 0.512-0.125 0.125-0.091 0.188-0.206 0.188-0.345 0-0.167-0.087-0.289-0.261-0.366-0.174-0.084-0.456-0.174-0.846-0.272-0.418-0.098-0.766-0.199-1.045-0.303-0.279-0.111-0.519-0.282-0.721-0.512-0.202-0.237-0.303-0.554-0.303-0.951 0-0.334 0.091-0.637 0.272-0.909 0.188-0.279 0.46-0.498 0.815-0.658 0.362-0.16 0.791-0.24 1.285-0.24 0.731 0 1.306 0.181 1.724 0.543 0.425 0.362 0.669 0.843 0.731 1.442h-1.651c-0.028-0.202-0.118-0.362-0.272-0.481-0.146-0.118-0.341-0.178-0.585-0.178-0.209 0-0.369 0.042-0.481 0.125-0.111 0.077-0.167 0.185-0.167 0.324 0 0.167 0.087 0.293 0.261 0.376 0.181 0.084 0.46 0.167 0.836 0.251 0.432 0.111 0.784 0.223 1.055 0.334 0.272 0.105 0.509 0.279 0.711 0.522 0.209 0.237 0.317 0.557 0.324 0.961 0 0.341-0.098 0.648-0.293 0.919-0.188 0.265-0.463 0.474-0.825 0.627-0.355 0.153-0.77 0.23-1.243 0.23zM28.997 20.556c0.669 0 1.205 0.223 1.609 0.669 0.404 0.439 0.606 1.045 0.606 1.818v3.406h-1.776v-3.166c0-0.39-0.101-0.693-0.303-0.909s-0.474-0.324-0.815-0.324c-0.341 0-0.613 0.108-0.815 0.324s-0.303 0.519-0.303 0.909v3.166h-1.787v-7.732h1.787v2.685c0.181-0.258 0.428-0.463 0.742-0.616s0.665-0.23 1.055-0.23zM33.353 20.012c-0.313 0-0.571-0.091-0.773-0.272-0.195-0.188-0.293-0.418-0.293-0.69 0-0.279 0.098-0.509 0.293-0.69 0.202-0.188 0.46-0.282 0.773-0.282 0.307 0 0.557 0.094 0.752 0.282 0.202 0.181 0.303 0.411 0.303 0.69 0 0.272-0.101 0.502-0.303 0.69-0.195 0.181-0.446 0.272-0.752 0.272zM34.241 20.618v5.831h-1.787v-5.831h1.787zM38.19 26.533c-0.571 0-1.087-0.122-1.546-0.366-0.453-0.244-0.812-0.592-1.076-1.045-0.258-0.453-0.387-0.982-0.387-1.588 0-0.599 0.132-1.125 0.397-1.578 0.265-0.46 0.627-0.812 1.087-1.055s0.975-0.366 1.546-0.366c0.571 0 1.087 0.122 1.546 0.366s0.822 0.596 1.087 1.055c0.265 0.453 0.397 0.979 0.397 1.578s-0.136 1.128-0.407 1.588c-0.265 0.453-0.63 0.801-1.097 1.045-0.46 0.244-0.975 0.366-1.546 0.366zM38.19 24.986c0.341 0 0.63-0.125 0.867-0.376 0.244-0.251 0.366-0.61 0.366-1.076s-0.118-0.825-0.355-1.076c-0.23-0.251-0.516-0.376-0.857-0.376-0.348 0-0.637 0.125-0.867 0.376-0.23 0.244-0.345 0.603-0.345 1.076 0 0.467 0.111 0.825 0.334 1.076 0.23 0.251 0.515 0.376 0.857 0.376zM45.741 20.556c0.683 0 1.226 0.223 1.63 0.669 0.411 0.439 0.617 1.045 0.617 1.818v3.406h-1.776v-3.166c0-0.39-0.101-0.693-0.303-0.909s-0.474-0.324-0.815-0.324c-0.341 0-0.613 0.108-0.815 0.324s-0.303 0.519-0.303 0.909v3.166h-1.787v-5.831h1.787v0.773c0.181-0.258 0.425-0.46 0.731-0.606 0.306-0.153 0.651-0.23 1.034-0.23z"></path>
<path fill="#0ba3f8" d="M12.139 23.523c0-0.599 0.111-1.125 0.334-1.578 0.23-0.453 0.54-0.801 0.93-1.045s0.825-0.366 1.306-0.366c0.411 0 0.77 0.084 1.076 0.251 0.313 0.167 0.554 0.387 0.721 0.658v-0.825h1.787v5.831h-1.787v-0.825c-0.174 0.272-0.418 0.491-0.731 0.658-0.306 0.167-0.665 0.251-1.076 0.251-0.474 0-0.906-0.122-1.296-0.366-0.39-0.251-0.7-0.603-0.93-1.055-0.223-0.46-0.334-0.989-0.334-1.588zM16.507 23.534c0-0.446-0.125-0.798-0.376-1.055-0.244-0.258-0.543-0.387-0.899-0.387s-0.658 0.129-0.909 0.387c-0.244 0.251-0.366 0.599-0.366 1.045s0.122 0.801 0.366 1.066c0.251 0.258 0.554 0.387 0.909 0.387s0.655-0.129 0.899-0.387c0.251-0.258 0.376-0.61 0.376-1.055z"></path>
</svg>
