<!-- Generated by IcoMoon.io -->
<svg version="1.1" xmlns="http://www.w3.org/2000/svg" width="32" height="32" viewBox="0 0 32 32">
<title>jam-box</title>
<path d="M6.667 5.333h18.667c1.061 0 2.078 0.421 2.828 1.172s1.172 1.768 1.172 2.828v13.333c0 1.061-0.421 2.078-1.172 2.828s-1.768 1.172-2.828 1.172h-18.667c-1.061 0-2.078-0.421-2.828-1.172s-1.172-1.768-1.172-2.828v-13.333c0-1.061 0.421-2.078 1.172-2.828s1.768-1.172 2.828-1.172zM6.667 8c-0.354 0-0.693 0.14-0.943 0.391s-0.391 0.589-0.391 0.943v13.333c0 0.354 0.14 0.693 0.391 0.943s0.589 0.391 0.943 0.391h18.667c0.354 0 0.693-0.141 0.943-0.391s0.391-0.589 0.391-0.943v-13.333c0-0.354-0.141-0.693-0.391-0.943s-0.589-0.391-0.943-0.391h-18.667zM21.165 14.667c-0.297 1.144-0.965 2.158-1.9 2.881s-2.084 1.116-3.266 1.116-2.331-0.393-3.266-1.116c-0.935-0.723-1.603-1.737-1.9-2.881h-5.501v-2.667h21.333v2.667h-5.501zM18.309 14.667h-4.619c0.234 0.405 0.571 0.742 0.976 0.976s0.865 0.357 1.333 0.357 0.928-0.123 1.333-0.357c0.405-0.234 0.742-0.571 0.976-0.976z"></path>
</svg>
