<!-- Generated by IcoMoon.io -->
<svg version="1.1" xmlns="http://www.w3.org/2000/svg" width="45" height="32" viewBox="0 0 45 32">
<title>mail</title>
<path fill="#fff" stroke="#fff" stroke-width="2.6667" stroke-miterlimit="4" stroke-linecap="butt" stroke-linejoin="miter" d="M42.687 6.93v0l0.015-0.014c0.373-0.352 0.812-0.934 0.947-1.696 0.151-0.85-0.112-1.729-0.84-2.456-0.722-0.722-1.599-1.006-2.494-0.847-0.773 0.138-1.402 0.581-1.834 0.95l-15.814 12.753-15.789-12.752c-0.433-0.369-1.061-0.812-1.835-0.95-0.895-0.16-1.772 0.125-2.494 0.846-0.728 0.728-0.991 1.606-0.84 2.456 0.136 0.762 0.574 1.343 0.947 1.696l-0 0 9.835 9.011-9.505 9.898c-0.272 0.318-0.537 0.763-0.637 1.287-0.105 0.548-0.030 1.243 0.484 1.818 0.497 0.585 1.194 0.759 1.69 0.782s1.126-0.087 1.622-0.469l0.027-0.021 0.026-0.022 10.757-9.181 5.709 5.226 5.738-5.228 10.811 9.226c0.496 0.381 1.125 0.491 1.622 0.469s1.193-0.198 1.69-0.782c0.515-0.574 0.59-1.27 0.485-1.818-0.101-0.523-0.365-0.969-0.637-1.287l-0.025-0.029-0.026-0.027-9.454-9.842 9.82-8.998zM44.027 4v24c0 1.477-1.19 2.667-2.667 2.667h-37.36c-1.477 0-2.667-1.19-2.667-2.667v-24c0-1.477 1.19-2.667 2.667-2.667h37.36c1.477 0 2.667 1.19 2.667 2.667z"></path>
</svg>
