<!-- Generated by IcoMoon.io -->
<svg version="1.1" xmlns="http://www.w3.org/2000/svg" width="30" height="32" viewBox="0 0 30 32">
<title>search</title>
<path d="M30.316 29.572l-8.468-8.468c2.035-2.443 3.050-5.577 2.833-8.749s-1.648-6.139-3.996-8.283c-2.348-2.144-5.432-3.3-8.611-3.228s-6.207 1.367-8.455 3.615c-2.248 2.248-3.543 5.277-3.615 8.455s1.084 6.263 3.228 8.611c2.144 2.348 5.11 3.779 8.283 3.996s6.306-0.798 8.749-2.833l8.468 8.468 1.586-1.586zM2.283 13.217c0-1.996 0.592-3.947 1.701-5.607s2.685-2.953 4.529-3.717c1.844-0.764 3.873-0.964 5.831-0.574s3.756 1.351 5.167 2.762c1.411 1.411 2.373 3.21 2.762 5.167s0.189 3.987-0.574 5.831c-0.764 1.844-2.057 3.42-3.717 4.529s-3.611 1.701-5.607 1.701c-2.676-0.003-5.241-1.067-7.133-2.959s-2.956-4.457-2.959-7.133z"></path>
</svg>
