<!-- Generated by IcoMoon.io -->
<svg version="1.1" xmlns="http://www.w3.org/2000/svg" width="32" height="32" viewBox="0 0 32 32">
<title>shopping-cart</title>
<path d="M28.107 9.333c-0.23-0.399-0.56-0.732-0.958-0.966s-0.848-0.36-1.309-0.368h-17.067l-0.773-3.013c-0.078-0.291-0.252-0.547-0.495-0.726s-0.538-0.271-0.839-0.261h-2.667c-0.354 0-0.693 0.14-0.943 0.391s-0.391 0.589-0.391 0.943c0 0.354 0.14 0.693 0.391 0.943s0.589 0.391 0.943 0.391h1.653l3.68 13.68c0.078 0.291 0.252 0.547 0.495 0.726s0.538 0.271 0.839 0.261h12c0.246-0.001 0.487-0.070 0.697-0.199s0.379-0.314 0.49-0.534l4.373-8.747c0.19-0.397 0.278-0.835 0.257-1.275s-0.15-0.867-0.377-1.245zM21.84 18.666h-10.16l-2.173-8h16.333l-4 8z"></path>
<path d="M10 28c1.105 0 2-0.895 2-2s-0.895-2-2-2c-1.105 0-2 0.895-2 2s0.895 2 2 2z"></path>
<path d="M23.333 28c1.105 0 2-0.895 2-2s-0.895-2-2-2c-1.105 0-2 0.895-2 2s0.895 2 2 2z"></path>
</svg>
