<!-- Generated by IcoMoon.io -->
<svg version="1.1" xmlns="http://www.w3.org/2000/svg" width="28" height="32" viewBox="0 0 28 32">
<title>tiktok</title>
<path fill="#fff" d="M22.116 5.013c-1.215-1.387-1.885-3.169-1.884-5.013h-5.493v22.044c-0.042 1.193-0.546 2.323-1.405 3.152s-2.006 1.292-3.2 1.293c-2.524 0-4.622-2.062-4.622-4.622 0-3.058 2.951-5.351 5.991-4.409v-5.618c-6.133-0.818-11.502 3.947-11.502 10.027 0 5.92 4.907 10.133 10.116 10.133 5.582 0 10.116-4.533 10.116-10.133v-11.182c2.228 1.6 4.902 2.458 7.644 2.453v-5.493c0 0-3.342 0.16-5.76-2.631z"></path>
</svg>
