<!-- Generated by IcoMoon.io -->
<svg version="1.1" xmlns="http://www.w3.org/2000/svg" width="32" height="32" viewBox="0 0 32 32">
<title>twitter</title>
<path fill="#fff" d="M27.964 8.957c-0.619 0.826-1.368 1.547-2.217 2.134 0 0.216 0 0.432 0 0.659 0.007 3.918-1.558 7.676-4.345 10.43s-6.561 4.274-10.477 4.219c-2.264 0.008-4.499-0.509-6.53-1.51-0.11-0.048-0.18-0.156-0.18-0.276v-0.132c0-0.172 0.139-0.312 0.312-0.312 2.226-0.073 4.372-0.845 6.135-2.206-2.014-0.041-3.827-1.234-4.661-3.069-0.042-0.1-0.029-0.215 0.035-0.303s0.169-0.137 0.277-0.128c0.612 0.061 1.231 0.005 1.821-0.168-2.224-0.462-3.895-2.308-4.134-4.567-0.009-0.108 0.040-0.213 0.128-0.277s0.203-0.077 0.303-0.035c0.597 0.263 1.241 0.402 1.893 0.407-1.949-1.279-2.79-3.711-2.049-5.922 0.077-0.215 0.26-0.373 0.484-0.418s0.454 0.032 0.606 0.202c2.629 2.798 6.242 4.466 10.077 4.651-0.098-0.392-0.146-0.795-0.144-1.199 0.036-2.119 1.347-4.006 3.319-4.778s4.215-0.277 5.679 1.254c0.998-0.19 1.963-0.525 2.864-0.995 0.066-0.041 0.15-0.041 0.216 0 0.041 0.066 0.041 0.15 0 0.216-0.436 0.999-1.174 1.837-2.109 2.398 0.819-0.095 1.623-0.288 2.396-0.575 0.065-0.044 0.151-0.044 0.216 0 0.055 0.025 0.095 0.073 0.111 0.13s0.006 0.12-0.028 0.169z"></path>
</svg>
